<?xml version="1.0" encoding="iso-8859-1"?>
<!-- Generator: Adobe Illustrator 19.0.0, SVG Export Plug-In . SVG Version: 6.00 Build 0)  -->
<svg version="1.1" id="Capa_1" xmlns="http://www.w3.org/2000/svg" xmlns:xlink="http://www.w3.org/1999/xlink" x="0px" y="0px"
	 viewBox="0 0 511.999 511.999" style="enable-background:new 0 0 511.999 511.999;" xml:space="preserve">
<circle style="fill:#FFCF4B;" cx="255.999" cy="255.999" r="255.999"/>
<path style="fill:#42A3CC;" d="M68.326,119.77c-0.522-0.249-12.925-6.035-22.606-1.544c-4.734,2.196-7.929,6.305-9.492,12.212
	c-1.319,4.98-0.368,14.39,0.948,27.415c2.196,21.744,5.204,51.524-3.616,63.612c-1.286,1.763-2.613,2.696-4.058,2.855
	c-0.568,0.063-1.189,0.011-1.857-0.149c-1.753-0.422-3.565,0.381-4.256,2.047l-0.133,0.32c-0.859,2.069,0.287,4.463,2.458,5.019
	c1.125,0.288,2.23,0.436,3.309,0.436c0.442,0,0.88-0.024,1.312-0.071c3.651-0.4,6.814-2.401,9.402-5.949
	c10.546-14.452,7.497-44.635,5.048-68.888c-1.093-10.826-2.126-21.052-1.164-24.689c0.965-3.648,2.699-6.011,5.301-7.224
	c5.319-2.48,13.443,0.247,16.129,1.508c1.907,0.904,4.185,0.091,5.091-1.815C71.046,122.957,70.234,120.676,68.326,119.77z"/>
<path style="fill:#51B0E0;" d="M89.264,228.994c0,72.356-8.968,131.014-20.034,131.014c-11.054,0-20.022-58.658-20.022-131.014
	c0-7.853,0.11-15.533,0.317-23.004c0.066-2.862,0.164-5.691,0.273-8.488c2.151-57.14,10.038-99.522,19.433-99.522
	c9.405,0,17.292,42.382,19.443,99.522c0.11,2.796,0.208,5.626,0.273,8.488C89.156,213.461,89.264,221.141,89.264,228.994z"/>
<g>
	<path style="fill:#42A3CC;" d="M69.242,360.008c-11.065,0-20.034-58.658-20.034-131.014S58.177,97.98,69.242,97.98
		c-3.747,0-6.772,58.658-6.772,131.014C62.469,301.35,65.495,360.008,69.242,360.008z"/>
	<path style="fill:#42A3CC;" d="M88.948,205.99H49.525c0.066-2.862,0.164-5.691,0.273-8.488h38.876
		C88.784,200.298,88.882,203.128,88.948,205.99z"/>
</g>
<path style="fill:#E8E8E8;" d="M474.47,96.078v293.428c-22.977,37.522-55.348,68.671-93.853,90.164L136.614,323.364V0h241.768
	L474.47,96.078z"/>
<g>
	<rect x="162.011" y="126.297" style="fill:#535B70;" width="288.349" height="11.494"/>
	<rect x="162.011" y="190.767" style="fill:#535B70;" width="288.349" height="11.494"/>
	<rect x="162.011" y="220.755" style="fill:#535B70;" width="288.349" height="11.494"/>
	<rect x="162.011" y="251.057" style="fill:#535B70;" width="133.705" height="11.494"/>
</g>
<path style="fill:#F44E72;" d="M100.941,142.867l0.196,212.557c3.442,2.984,7.519,5.153,11.89,6.355
	c5.094,1.401,10.582,1.487,15.905,0.014c0.504-0.134,1.001-0.288,1.499-0.453c3.955-1.318,7.442-3.362,10.371-5.933l0.002-0.003
	l-0.196-212.593l-0.002-0.002h-0.016l-21.747-2.692l-17.884,2.749L100.941,142.867z"/>
<path style="fill:#E22952;" d="M128.727,142.825l0.206,218.967c0.504-0.134,1.001-0.288,1.499-0.453
	c3.955-1.318,7.442-3.362,10.371-5.933l-0.196-212.599L128.727,142.825z"/>
<path style="fill:#F96D8C;" d="M100.941,142.867l0.196,212.557c3.442,2.984,7.519,5.153,11.89,6.355l-0.206-218.931l-11.863,0.017
	L100.941,142.867z"/>
<polygon style="fill:#E8E8E8;" points="120.719,104.336 140.608,142.809 100.94,142.867 "/>
<polygon style="fill:#D6D6D6;" points="140.608,142.809 120.719,104.336 125.635,142.831 "/>
<path style="fill:#535B70;" d="M120.325,98.503l0.771-0.001c1.667-0.002,3.02,1.347,3.022,3.013l0.014,9.622l-6.805,0.009
	l-0.014-9.622C117.309,99.859,118.658,98.505,120.325,98.503z"/>
<g>
	<path style="fill:#F9F9F9;" d="M400.523,323.364v143.955c-6.426,4.409-13.072,8.537-19.905,12.351
		c-36.874,20.595-79.37,32.329-124.614,32.329c-54.324,0-104.688-16.917-146.118-45.777c-8.432-5.862-16.488-12.225-24.137-19.038
		c-4.963-4.42-9.759-9.038-14.346-13.834c-7.105-7.377-13.761-15.182-19.916-23.364c-10.23-13.552-19.132-28.15-26.53-43.614
		v-43.008H400.523z"/>
	<path style="fill:#F9F9F9;" d="M501.815,106.971H351.487c-5.337,0-9.663,4.326-9.663,9.663v77.826c0,5.337,4.326,9.663,9.663,9.663
		h150.328c5.337,0,9.663-4.327,9.663-9.663v-77.826C511.479,111.298,507.152,106.971,501.815,106.971z"/>
</g>
<path style="fill:#51B0E0;" d="M386.502,189.096c-18.498,0-33.547-15.05-33.547-33.547s15.05-33.547,33.547-33.547
	c18.499,0,33.547,15.05,33.547,33.547C420.05,174.046,405.001,189.096,386.502,189.096z M386.502,133.494
	c-12.16,0-22.054,9.893-22.054,22.054s9.893,22.054,22.054,22.054s22.054-9.893,22.054-22.054S398.663,133.494,386.502,133.494z"/>
<circle style="fill:#F44E72;" cx="386.497" cy="155.543" r="9.301"/>
<path style="fill:#51B0E0;" d="M99.865,369.13c-24.262,0-44.46,17.69-48.379,40.855c6.154,8.182,12.81,15.987,19.916,23.364
	c-2.424-4.524-3.793-9.686-3.793-15.161c0-17.784,14.472-32.245,32.256-32.245s32.245,14.461,32.245,32.245
	c0,17.784-14.461,32.256-32.245,32.256c-5.057,0-9.853-1.17-14.117-3.26c7.649,6.813,15.705,13.176,24.137,19.038
	c22.267-4.639,39.037-24.419,39.037-48.034C148.923,391.136,126.917,369.13,99.865,369.13z"/>
<circle style="fill:#F44E72;" cx="99.861" cy="418.188" r="13.605"/>
<path style="fill:#51B0E0;" d="M195.554,94.812c-18.499,0-33.547-15.05-33.547-33.547c0-18.499,15.05-33.547,33.547-33.547
	s33.547,15.05,33.547,33.547C229.103,79.762,214.053,94.812,195.554,94.812z M195.554,39.211c-12.16,0-22.054,9.893-22.054,22.054
	s9.893,22.054,22.054,22.054c12.161,0,22.054-9.893,22.054-22.054C217.609,49.104,207.715,39.211,195.554,39.211z"/>
<circle style="fill:#F44E72;" cx="195.552" cy="61.262" r="9.301"/>
<g>
	<rect x="272.969" y="379.966" style="fill:#535B70;" width="81.094" height="11.494"/>
	<rect x="272.969" y="413.319" style="fill:#535B70;" width="81.094" height="11.494"/>
	<rect x="272.969" y="446.662" style="fill:#535B70;" width="81.094" height="11.494"/>
</g>
<polyline style="fill:#F9F9F9;" points="474.47,96.08 378.377,96.08 378.377,0.001 "/>
<g>
	<rect x="429.578" y="138.198" style="fill:#535B70;" width="54.995" height="11.494"/>
	<rect x="429.578" y="161.405" style="fill:#535B70;" width="54.995" height="11.494"/>
</g>
<path style="fill:#F9F9F9;" d="M501.815,215.64H351.487c-5.337,0-9.663,4.326-9.663,9.663v77.826c0,5.337,4.326,9.663,9.663,9.663
	h150.328c5.337,0,9.663-4.326,9.663-9.663v-77.826C511.479,219.967,507.152,215.64,501.815,215.64z"/>
<path style="fill:#51B0E0;" d="M426.651,297.765c-18.498,0-33.547-15.05-33.547-33.547c0-18.498,15.05-33.547,33.547-33.547
	c18.499,0,33.547,15.05,33.547,33.547C460.198,282.715,445.15,297.765,426.651,297.765z M426.651,242.163
	c-12.16,0-22.054,9.893-22.054,22.054c0,12.161,9.893,22.054,22.054,22.054s22.054-9.893,22.054-22.054
	C448.704,252.056,438.811,242.163,426.651,242.163z"/>
<circle style="fill:#F44E72;" cx="426.652" cy="264.212" r="9.301"/>
<g>
</g>
<g>
</g>
<g>
</g>
<g>
</g>
<g>
</g>
<g>
</g>
<g>
</g>
<g>
</g>
<g>
</g>
<g>
</g>
<g>
</g>
<g>
</g>
<g>
</g>
<g>
</g>
<g>
</g>
</svg>
