<svg id="Layer_1" enable-background="new 0 0 500 500" viewBox="0 0 500 500" xmlns="http://www.w3.org/2000/svg" xmlns:xlink="http://www.w3.org/1999/xlink"><linearGradient id="SVGID_1_" gradientUnits="userSpaceOnUse" x1="45.438" x2="432.857" y1="462.245" y2="74.827"><stop offset="0" stop-color="#2849d4"/><stop offset=".1087" stop-color="#2752d5"/><stop offset=".2862" stop-color="#256ad9"/><stop offset=".5103" stop-color="#2092de"/><stop offset=".7694" stop-color="#1bc9e6"/><stop offset="1" stop-color="#15ffee"/></linearGradient><path clip-rule="evenodd" d="m114.18 288.528-.001-54.813c0-3.812 3.072-6.873 6.856-6.873 3.795 0 6.856 3.061 6.856 6.873l.001 47.997 47.974-.001c3.789 0 6.856 3.061 6.856 6.815 0 3.812-3.067 6.873-6.856 6.874l-54.83.001c-3.783 0-6.856-3.061-6.856-6.873zm203.073-257.898c0-3.812 3.072-6.874 6.856-6.874l54.836-.001c3.783 0 6.856 3.061 6.856 6.873l.001 54.813c0 3.812-3.072 6.873-6.856 6.874-3.783 0-6.856-3.061-6.856-6.873l-.001-47.94-47.98.001c-3.783.001-6.856-3.118-6.856-6.873zm-121.316 15.309 30.215 60.472-22.486.001c-3.783 0-6.85 3.061-6.85 6.874l.001 39.449-54.27.001zm111.681 171.252-.002-97.092-97.092.002.002 97.092zm13.712 6.873-.001-57.181c28.55 3.407 50.765 27.723 50.765 57.18.001 31.767-25.846 57.644-57.619 57.644-29.451.001-53.803-22.236-57.205-50.768l57.204-.001c3.783-.001 6.856-3.062 6.856-6.874zm-189.872-57.639 65.36-.002.001 57.643c0 3.812 3.067 6.873 6.85 6.873l39.813-.001c3.455 36.099 33.975 64.458 70.993 64.457 39.328-.001 71.331-32 71.33-71.334-.001-37.023-28.344-67.519-64.478-70.984l-.001-39.796c0-3.812-3.073-6.873-6.856-6.873l-72.978.002-39.434-78.84c-2.545-5.077-9.722-5.056-12.257 0l-64.471 128.979c-2.265 4.47.988 9.877 6.128 9.876zm304.277 172.749c-1.409 5.545-4.955 10.223-9.98 13.169-5.106 2.946-12.533 7.393-21.145 12.592-22.248 13.458-55.875 33.732-86.244 50.021-46.108 24.664-62.009 27.841-67.375 27.552-46.282-2.611-93.269-11.416-139.672-3.982l-.002-88.197c10.934-.52 24.022-1.676 37.179-4.564 7.638-1.697 23.173-9.059 38.166-16.347 30.375-14.556 32.68-14.036 60.866-7.914 15.585 3.337 57.615 11.196 57.754 26.51.064 3.523-.82 6.873-2.553 9.877-.52.347-1.011.751-1.444 1.213-4.303 4.852-10.749 7.393-17.247 6.873l-74.22-5.947c-3.766-.289-7.075 2.484-7.376 6.296-.312 3.754 2.501 7.046 6.279 7.335l74.22 6.005c.924.058 1.837.115 2.749.115 8.878 0 17.507-3.466 23.912-9.589.295-.115.589-.231.861-.404l92.684-53.833c16.556-9.612 37.221 4.846 32.588 23.219zm-338.122 120.84c0 1.328-1.155 2.484-2.512 2.484l-28.949.001c-1.369 0-2.524-1.155-2.524-2.483l-.003-123.142c0-1.386 1.155-2.542 2.524-2.542l28.949-.001c1.357 0 2.512 1.155 2.512 2.541zm347.415-143.828c-10.056-16.403-31.929-21.832-48.766-12.07l-77.269 44.88c.006-.404.006-.751 0-1.155-.058-18.714-21.591-27.377-37.798-32.286-10.894-3.306-20.914-5.335-30.74-7.45-31.126-6.757-36.388-7.046-69.726 8.954-13.126 6.374-28.916 13.923-35.169 15.307-11.968 2.6-24.033 3.697-34.251 4.275-.139-8.837-7.347-15.999-16.213-15.999l-28.949.001c-8.953 0-16.23 7.278-16.23 16.231l.003 123.142c0 8.952 7.278 16.23 16.231 16.23l28.949-.001c8.947 0 16.218-7.278 16.218-16.23v-7.624c31.734-5.462 62.917-2.747 98.334.517 13.082 1.213 26.621 2.483 40.546 3.291h1.311c26.188-.001 96.3-40.953 160.186-79.48 8.554-5.198 15.935-9.646 20.937-12.534 16.853-9.763 22.568-31.328 12.396-47.999z" fill="url(#SVGID_1_)" fill-rule="evenodd"/></svg>