<svg height="512" viewBox="0 0 64 64" width="512" xmlns="http://www.w3.org/2000/svg" xmlns:xlink="http://www.w3.org/1999/xlink"><linearGradient id="New_Gradient_Swatch_3" gradientUnits="userSpaceOnUse" x1="32" x2="32" y1="62.582" y2="2.85"><stop offset="0" stop-color="#006df0"/><stop offset="1" stop-color="#00e7f0"/></linearGradient><linearGradient id="New_Gradient_Swatch_3-3" x1="18.5" x2="18.5" xlink:href="#New_Gradient_Swatch_3" y1="62.582" y2="2.85"/><linearGradient id="New_Gradient_Swatch_3-4" x1="14.5" x2="14.5" xlink:href="#New_Gradient_Swatch_3" y1="62.582" y2="2.85"/><linearGradient id="New_Gradient_Swatch_3-5" x1="22.5" x2="22.5" xlink:href="#New_Gradient_Swatch_3" y1="62.582" y2="2.85"/><linearGradient id="New_Gradient_Swatch_3-6" x1="27.5" x2="27.5" xlink:href="#New_Gradient_Swatch_3" y1="62.582" y2="2.85"/><linearGradient id="New_Gradient_Swatch_3-7" x1="31" x2="31" xlink:href="#New_Gradient_Swatch_3" y1="62.582" y2="2.85"/><linearGradient id="New_Gradient_Swatch_3-9" x1="23.5" x2="23.5" xlink:href="#New_Gradient_Swatch_3" y1="62.582" y2="2.85"/><linearGradient id="New_Gradient_Swatch_3-13" x1="26.5" x2="26.5" xlink:href="#New_Gradient_Swatch_3" y1="62.582" y2="2.85"/><linearGradient id="New_Gradient_Swatch_3-14" x1="7" x2="7" xlink:href="#New_Gradient_Swatch_3" y1="62.582" y2="2.85"/><linearGradient id="New_Gradient_Swatch_3-15" x1="19.5" x2="19.5" xlink:href="#New_Gradient_Swatch_3" y1="62.582" y2="2.85"/><linearGradient id="New_Gradient_Swatch_3-21" x1="7.5" x2="7.5" xlink:href="#New_Gradient_Swatch_3" y1="62.582" y2="2.85"/><linearGradient id="New_Gradient_Swatch_3-22" x1="11.5" x2="11.5" xlink:href="#New_Gradient_Swatch_3" y1="62.582" y2="2.85"/><linearGradient id="New_Gradient_Swatch_3-23" x1="15.5" x2="15.5" xlink:href="#New_Gradient_Swatch_3" y1="62.582" y2="2.85"/><linearGradient id="New_Gradient_Swatch_3-24" x1="10.5" x2="10.5" xlink:href="#New_Gradient_Swatch_3" y1="62.582" y2="2.85"/><linearGradient id="New_Gradient_Swatch_3-25" x1="19" x2="19" xlink:href="#New_Gradient_Swatch_3" y1="62.582" y2="2.85"/><linearGradient id="New_Gradient_Swatch_3-26" x1="47" x2="47" xlink:href="#New_Gradient_Swatch_3" y1="62.582" y2="2.85"/><linearGradient id="New_Gradient_Swatch_3-28" x1="48" x2="48" xlink:href="#New_Gradient_Swatch_3" y1="62.582" y2="2.85"/><g id="graphic_design-browser-website-we_bdesign-online" data-name="graphic design-browser-website-we bdesign-online"><path d="m62 45v-38a5 5 0 0 0 -5-5h-50a5 5 0 0 0 -5 5v38a5 5 0 0 0 5 5h18v6h-6a3.009 3.009 0 0 0 -3 3v2a1 1 0 0 0 1 1h30a1 1 0 0 0 1-1v-2a3.009 3.009 0 0 0 -3-3h-6v-6h5.89c4.55 4.17 11.81 10.82 11.81 10.82a3.086 3.086 0 0 0 4.36-4.36s-2.8-3.07-5.91-6.46h1.85a5 5 0 0 0 5-5zm-58-38a3.009 3.009 0 0 1 3-3h50a3.009 3.009 0 0 1 3 3v35h-12.18l-.87-.95-5.66-5.66a1 1 0 0 0 -.68-.29 4.915 4.915 0 0 0 -1.44-3.24c-1.69-1.7-7.8-2.89-9.01-3.11a1.013 1.013 0 0 0 -.89.28 1 1 0 0 0 -.27.89c.22 1.2 1.4 7.31 3.1 9.01a4.976 4.976 0 0 0 3.25 1.43.978.978 0 0 0 .29.69l.95.95h-32.59zm36.59 30.51 4.24 4.25-2.83 2.83-4.24-4.25zm-7.08 0c-.77-.77-1.68-3.89-2.25-6.5 2.61.58 5.72 1.49 6.5 2.26a3 3 0 0 1 -4.25 4.24zm11.49 20.49a1 1 0 0 1 1 1v1h-28v-1a1 1 0 0 1 1-1zm-18-2v-6h10v6zm-20-8a3.009 3.009 0 0 1 -3-3v-1h34.59l2.7 2.71s.54.49 1.41 1.29zm52.59 9.81a1.09 1.09 0 0 1 -1.54 1.54l-14.6-13.38 2.76-2.77zm-6.27-9.81c-1.32-1.44-2.6-2.84-3.67-4h10.35v1a3.009 3.009 0 0 1 -3 3z" fill="url(#New_Gradient_Swatch_3)"/><path d="m33 45h-2a1 1 0 0 0 0 2h2a1 1 0 0 0 0-2z" fill="url(#New_Gradient_Swatch_3)"/><path d="m19 32h-1a1 1 0 0 0 0 2h1a1 1 0 0 0 0-2z" fill="url(#New_Gradient_Swatch_3-3)"/><path d="m15 32h-1a1 1 0 0 0 0 2h1a1 1 0 0 0 0-2z" fill="url(#New_Gradient_Swatch_3-4)"/><path d="m23 32h-1a1 1 0 0 0 0 2h1a1 1 0 0 0 0-2z" fill="url(#New_Gradient_Swatch_3-5)"/><path d="m27 10h1a1 1 0 0 0 0-2h-1a1 1 0 0 0 0 2z" fill="url(#New_Gradient_Swatch_3-6)"/><path d="m31 15a1 1 0 0 0 1-1v-1a1 1 0 0 0 -2 0v1a1 1 0 0 0 1 1z" fill="url(#New_Gradient_Swatch_3-7)"/><path d="m31 11a1 1 0 0 0 1-1v-1a1 1 0 0 0 -2 0v1a1 1 0 0 0 1 1z" fill="url(#New_Gradient_Swatch_3-7)"/><path d="m23 10h1a1 1 0 0 0 0-2h-1a1 1 0 0 0 0 2z" fill="url(#New_Gradient_Swatch_3-9)"/><path d="m31 19a1 1 0 0 0 1-1v-1a1 1 0 0 0 -2 0v1a1 1 0 0 0 1 1z" fill="url(#New_Gradient_Swatch_3-7)"/><path d="m31 27a1 1 0 0 0 1-1v-1a1 1 0 0 0 -2 0v1a1 1 0 0 0 1 1z" fill="url(#New_Gradient_Swatch_3-7)"/><path d="m31 23a1 1 0 0 0 1-1v-1a1 1 0 0 0 -2 0v1a1 1 0 0 0 1 1z" fill="url(#New_Gradient_Swatch_3-7)"/><path d="m27 32h-1a1 1 0 0 0 0 2h1a1 1 0 0 0 0-2z" fill="url(#New_Gradient_Swatch_3-13)"/><path d="m7 26a1 1 0 0 0 1-1v-1a1 1 0 0 0 -2 0v1a1 1 0 0 0 1 1z" fill="url(#New_Gradient_Swatch_3-14)"/><path d="m19 10h1a1 1 0 0 0 0-2h-1a1 1 0 0 0 0 2z" fill="url(#New_Gradient_Swatch_3-15)"/><g fill="url(#New_Gradient_Swatch_3-14)"><path d="m7 18a1 1 0 0 0 1-1v-1a1 1 0 0 0 -2 0v1a1 1 0 0 0 1 1z"/><path d="m7 30a1 1 0 0 0 1-1v-1a1 1 0 0 0 -2 0v1a1 1 0 0 0 1 1z"/><path d="m7 14a1 1 0 0 0 1-1v-1a1 1 0 0 0 -2 0v1a1 1 0 0 0 1 1z"/><path d="m7 34a1 1 0 0 0 1-1v-1a1 1 0 0 0 -2 0v1a1 1 0 0 0 1 1z"/><path d="m7 22a1 1 0 0 0 1-1v-1a1 1 0 0 0 -2 0v1a1 1 0 0 0 1 1z"/></g><path d="m7 10h1a1 1 0 0 0 0-2h-1a1 1 0 0 0 0 2z" fill="url(#New_Gradient_Swatch_3-21)"/><path d="m11 10h1a1 1 0 0 0 0-2h-1a1 1 0 0 0 0 2z" fill="url(#New_Gradient_Swatch_3-22)"/><path d="m15 10h1a1 1 0 0 0 0-2h-1a1 1 0 0 0 0 2z" fill="url(#New_Gradient_Swatch_3-23)"/><path d="m10 34h1a1 1 0 0 0 0-2h-1a1 1 0 0 0 0 2z" fill="url(#New_Gradient_Swatch_3-24)"/><path d="m11 30h16a1 1 0 0 0 1-1v-16a1 1 0 0 0 -1-1h-16a1 1 0 0 0 -1 1v16a1 1 0 0 0 1 1zm1-16h14v14h-14z" fill="url(#New_Gradient_Swatch_3-25)"/><path d="m37 16h20a1 1 0 0 0 1-1v-6a1 1 0 0 0 -1-1h-20a1 1 0 0 0 -1 1v6a1 1 0 0 0 1 1zm1-6h18v4h-18z" fill="url(#New_Gradient_Swatch_3-26)"/><path d="m37 26h20a1 1 0 0 0 1-1v-6a1 1 0 0 0 -1-1h-20a1 1 0 0 0 -1 1v6a1 1 0 0 0 1 1zm1-6h18v4h-18z" fill="url(#New_Gradient_Swatch_3-26)"/><path d="m57 28h-18a1 1 0 0 0 0 2h17v4h-11a1 1 0 0 0 0 2h12a1 1 0 0 0 1-1v-6a1 1 0 0 0 -1-1z" fill="url(#New_Gradient_Swatch_3-28)"/></g></svg>