<svg height="512pt" viewBox="0 -11 512 512" width="512pt" xmlns="http://www.w3.org/2000/svg"><path d="m120.117188 34.601562s171.949218 228.449219 360.851562 273.832032c.226562.054687.449219.113281.675781.167968 5.4375-20.285156 8.355469-41.601562 8.355469-63.601562 0-135.308594-109.691406-245-245-245-45.8125 0-88.679688 12.585938-125.355469 34.472656zm0 0" fill="#27a3ff"/><path d="m149.523438 421.320312-2.070313-38.550781h-105.066406c24.828125 36.4375 59.226562 65.824219 99.582031 84.558594h21.796875l-3.027344-5.691406c-6.632812-12.460938-10.460937-26.222657-11.214843-40.316407zm0 0" fill="#86fdfb"/><path d="m87.195312 392.925781c0-4.273437 2.269532-8.027343 5.652344-10.15625h-50.460937c12.621093 18.523438 27.714843 35.21875 44.808593 49.625zm0 0" fill="#11dfef"/><path d="m314.363281 33.601562c-5.917969 0-95.851562 0-193.246093 0-12.855469 7.550782-24.960938 16.246094-36.179688 25.9375l-77.996094 243.5c2.351563 9.65625 5.257813 19.097657 8.710938 28.269532l76.863281-.492188 239.925781 1.535156v-280.675781c0-9.941406-8.136718-18.074219-18.078125-18.074219zm0 0" fill="#2b3894"/><path d="m85.324219 59.214844c-.128907.109375-.257813.214844-.386719.324218l-77.996094 243.5c2.351563 9.65625 5.257813 19.097657 8.710938 28.269532l69.671875-.445313zm0 0" fill="#232e7a"/><path d="m30.199219 127.089844c-19.242188 34.980468-30.199219 75.164062-30.199219 117.910156 0 .507812.0078125 1.015625.0117188 1.523438l.0078124-.007813 1.4999998 25.757813h-.007812c1.230469 11.089843 3.199219 21.957031 5.859375 32.550781h298.914062c.78125 0 1.410156-.628907 1.410156-1.40625v-176.328125zm0 0" fill="#615df9"/><path d="m30.199219 127.089844c-19.242188 34.980468-30.199219 75.164062-30.199219 117.910156 0 .507812.0078125 1.015625.0117188 1.523438l.0078124-.007813 1.4999998 25.757813h-.007812c1.230469 11.089843 3.199219 21.957031 5.859375 32.550781h77.953125v-177.734375zm0 0" fill="#3d4ec6"/><path d="m43.65625 384.601562h270.707031c9.941407 0 18.078125-8.132812 18.078125-18.078124v-36.910157c-13.390625 0-183.042968 0-317.429687 0 7.222656 19.636719 16.902343 38.082031 28.644531 54.988281zm0 0" fill="#e6f7fe"/><g fill="#d5f1fe"><path d="m85.324219 366.523438v-36.910157c-23.832031 0-47.578125 0-70.316407 0 7.226563 19.636719 16.90625 38.082031 28.648438 54.988281h59.742188c-9.941407 0-18.074219-8.132812-18.074219-18.078124zm0 0"/><path d="m104.890625 357.109375c0 6.832031-5.539063 12.371094-12.375 12.371094-6.832031 0-12.371094-5.539063-12.371094-12.371094 0-6.835937 5.539063-12.375 12.371094-12.375 6.835937 0 12.375 5.539063 12.375 12.375zm0 0"/><path d="m29.109375 129.089844h278.585937v-28.175782h-260.847656c-6.519531 8.953126-12.457031 18.359376-17.738281 28.175782zm0 0"/><path d="m85.324219 100.914062h-38.476563c-6.523437 8.953126-12.457031 18.359376-17.738281 28.175782h56.214844zm0 0"/></g><path d="m305.511719 58.34375h-219.191407c-14.964843 12.734375-28.375 27.234375-39.917968 43.179688h261.292968v-40.992188c0-1.183594-1-2.1875-2.183593-2.1875zm0 0" fill="#615df9"/><path d="m85.324219 59.21875c-14.558594 12.523438-27.640625 26.71875-38.921875 42.304688h38.921875zm0 0" fill="#3d4ec6"/><path d="m176.859375 72.433594h-105.761719c-4.769531 4.808594-9.335937 9.816406-13.695312 15h119.457031c4.140625 0 7.5-3.355469 7.5-7.5 0-4.140625-3.359375-7.5-7.5-7.5zm0 0" fill="#8181fc"/><path d="m203.859375 72.433594h-132.761719c-4.769531 4.808594-9.335937 9.816406-13.695312 15h146.457031c4.140625 0 7.5-3.355469 7.5-7.5 0-4.140625-3.359375-7.5-7.5-7.5zm0 0" fill="#aeaeff"/><path d="m172.734375 79.933594c0-4.140625 3.359375-7.5 7.5-7.5h-109.136719c-4.769531 4.808594-9.335937 9.816406-13.695312 15h122.832031c-4.140625 0-7.5-3.355469-7.5-7.5zm0 0" fill="#8181fc"/><path d="m278.136719 87.433594h-43.777344c-4.140625 0-7.5-3.355469-7.5-7.5 0-4.140625 3.359375-7.5 7.5-7.5h43.777344c4.144531 0 7.5 3.359375 7.5 7.5 0 4.144531-3.355469 7.5-7.5 7.5zm0 0" fill="#aeaeff"/><path d="m68.292969 246.515625h-68.2734378c.0507813 8.703125.5624998 17.296875 1.4999998 25.757813h66.773438zm0 0" fill="#e6f7fe"/><path d="m89.792969 246.515625h-22.5v25.757813h22.503906c2.613281 0 4.734375-2.121094 4.734375-4.734376v-16.285156c0-2.617187-2.121094-4.738281-4.738281-4.738281zm0 0" fill="#f948b4"/><path d="m80.867188 213.367188h-78.839844c-.636719 4.953124-1.117188 9.957031-1.453125 15h80.292969c4.144531 0 7.5-3.359376 7.5-7.5 0-4.140626-3.355469-7.5-7.5-7.5zm0 0" fill="#aeaeff"/><path d="m80.867188 181.585938h-72.5625c-1.320313 4.941406-2.496094 9.941406-3.511719 15h76.074219c4.144531 0 7.5-3.359376 7.5-7.5 0-4.140626-3.355469-7.5-7.5-7.5zm0 0" fill="#aeaeff"/><path d="m53.070312 220.867188c0-4.140626 3.359376-7.5 7.5-7.5h-58.542968c-.636719 4.953124-1.117188 9.957031-1.453125 15h59.996093c-4.140624 0-7.5-3.359376-7.5-7.5zm0 0" fill="#8181fc"/><path d="m53.070312 189.085938c0-4.140626 3.359376-7.5 7.5-7.5h-52.265624c-1.320313 4.941406-2.496094 9.941406-3.511719 15h55.777343c-4.140624 0-7.5-3.359376-7.5-7.5zm0 0" fill="#8181fc"/><path d="m307.695312 129.089844h-215.875c18.546876 34.511718 37.570313 69.929687 55.992188 104.246094 1.507812-6.703126 7.496094-11.726563 14.644531-11.726563h145.238281zm0 0" fill="#fc7acd"/><path d="m166.386719 129.089844h-74.566407c18.546876 34.511718 37.570313 69.929687 55.992188 104.246094 1.507812-6.703126 7.496094-11.726563 14.644531-11.726563h53.628907c-16.441407-30.621094-33.253907-61.921875-49.699219-92.519531zm0 0" fill="#f948b4"/><path d="m465.449219 220.109375h-327.765625c-9.085938 0-16.519532 7.433594-16.519532 16.519531v219.796875c4.710938 2.765625 9.523438 5.375 14.429688 7.828125h346.375v-227.625c0-9.085937-7.433594-16.519531-16.519531-16.519531zm0 0" fill="#2b3894"/><path d="m195.429688 234.578125c-4.027344-.0625-7.382813-3.386719-7.382813-7.492187 0-2.976563 1.796875-5.808594 4.757813-6.976563h-55.121094c-9.085938 0-16.519532 7.433594-16.519532 16.519531v219.796875c4.710938 2.765625 9.523438 5.378907 14.429688 7.832031h59.832031v-229.679687zm0 0" fill="#232e7a"/><path d="m468.007812 301.824219h-332.886718v162.199219c.15625.078124.316406.152343.472656.230468h332.414062zm0 0" fill="#615df9"/><path d="m192.867188 301.824219h-57.746094v162.199219c.15625.078124.316406.152343.472656.230468h57.273438zm0 0" fill="#3d4ec6"/><path d="m388.710938 464.257812h79.296874v-162.433593h-166.535156c29.132813 54.234375 58.285156 108.515625 87.238282 162.433593zm0 0" fill="#fc7acd"/><path d="m384.742188 301.824219h-83.269532c29.132813 54.234375 58.285156 108.515625 87.238282 162.429687h79.300781v-7.390625c-27.648438-51.484375-55.46875-103.277343-83.269531-155.039062zm0 0" fill="#f948b4"/><path d="m465.824219 234.070312h-328.515625c-1.183594 0-2.183594 1-2.183594 2.183594v40.992188h332.886719v-40.992188c-.003907-1.183594-1.003907-2.183594-2.1875-2.183594zm0 0" fill="#615df9"/><path d="m192.867188 234.070312h-55.558594c-1.183594 0-2.1875 1-2.1875 2.183594v40.992188h57.746094zm0 0" fill="#3d4ec6"/><path d="m159.339844 263.164062c-4.125 0-7.5-3.375-7.5-7.5 0-3.433593 2.359375-6.59375 6.039062-7.359374 4.65625-.914063 8.960938 2.632812 8.960938 7.359374 0 4.230469-3.476563 7.5-7.5 7.5zm0 0" fill="#f948b4"/><path d="m179.859375 263.164062c-4.042969 0-7.5-3.285156-7.5-7.5 0-4.746093 4.335937-8.269531 8.96875-7.359374 3.613281.765624 6.03125 3.824218 6.03125 7.359374 0 4.214844-3.476563 7.5-7.5 7.5zm0 0" fill="#fecd0a"/><path d="m200.367188 263.164062c-4.078126 0-7.5-3.355468-7.5-7.5 0-3.386718 2.324218-6.585937 6.042968-7.359374 4.597656-.925782 8.957032 2.601562 8.957032 7.359374 0 4.152344-3.375 7.5-7.5 7.5zm0 0" fill="#39df74"/><path d="m382.949219 263.160156h-156.839844c-4.140625 0-7.5-3.359375-7.5-7.5 0-4.144531 3.359375-7.5 7.5-7.5h156.839844c4.144531 0 7.5 3.355469 7.5 7.5 0 4.140625-3.355469 7.5-7.5 7.5zm0 0" fill="#aeaeff"/><path d="m346.609375 255.660156c0-4.144531 3.359375-7.5 7.5-7.5h-128c-4.140625 0-7.5 3.355469-7.5 7.5 0 4.140625 3.359375 7.5 7.5 7.5h128c-4.140625 0-7.5-3.359375-7.5-7.5zm0 0" fill="#8181fc"/><path d="m445.449219 263.160156h-34c-4.140625 0-7.5-3.359375-7.5-7.5 0-4.144531 3.359375-7.5 7.5-7.5h34c4.144531 0 7.5 3.355469 7.5 7.5 0 4.140625-3.355469 7.5-7.5 7.5zm0 0" fill="#aeaeff"/><path d="m135.121094 276.25h332.886718v27.574219h-332.886718zm0 0" fill="#d5f1fe"/><path d="m188.773438 276.25h-53.652344v27.574219h81.230468c0-15.226563-12.347656-27.574219-27.578124-27.574219zm0 0" fill="#11dfef"/><path d="m192.867188 276.554688c-1.335938-.199219-2.703126-.304688-4.09375-.304688h-53.648438v27.574219h57.746094v-27.269531zm0 0" fill="#0ac6e5"/><path d="m506.816406 461.253906c-7.253906 0-280.390625 0-377.035156 0 34.347656 18.339844 73.566406 28.746094 115.21875 28.746094h235.964844c14.972656 0 24.324218-5.980469 27.957031-7.28125 1.871094-.832031 3.078125-2.691406 3.078125-4.738281v-11.539063c0-2.863281-2.320312-5.1875-5.183594-5.1875zm0 0" fill="#aeaeff"/><path d="m276.855469 482.8125c0-4.1875 3.347656-7.589844 7.515625-7.683594v-13.871094c-60.695313 0-119.363282 0-154.585938 0 34.34375 18.335938 73.5625 28.742188 115.214844 28.742188h36.816406c-2.898437-1.101562-4.960937-3.898438-4.960937-7.1875zm0 0" fill="#8181fc"/><path d="m236.65625 461.257812v5.996094c0 4.605469 3.769531 8.375 8.375 8.375h113.070312c4.605469 0 8.375-3.769531 8.375-8.375v-5.996094c-40.382812 0-86.707031 0-129.820312 0zm0 0" fill="#8181fc"/><path d="m274.328125 467.253906v-5.996094c-12.675781 0-25.308594 0-37.671875 0v5.996094c0 4.605469 3.769531 8.375 8.375 8.375h37.671875c-4.605469 0-8.375-3.769531-8.375-8.375zm0 0" fill="#615df9"/><path d="m296.828125 410.289062h-127.71875c-2.617187 0-4.738281 2.121094-4.738281 4.738282v16.28125c0 2.617187 2.121094 4.738281 4.738281 4.738281h127.71875c2.617187 0 4.738281-2.121094 4.738281-4.738281v-16.28125c0-2.617188-2.121094-4.738282-4.738281-4.738282zm0 0" fill="#e6f7fe"/><path d="m192.953125 431.3125v-16.285156c0-2.617188 2.121094-4.738282 4.738281-4.738282h-28.582031c-2.617187 0-4.738281 2.121094-4.738281 4.738282v16.285156c0 2.613281 2.121094 4.734375 4.738281 4.734375h28.582031c-2.617187 0-4.738281-2.121094-4.738281-4.734375zm0 0" fill="#d5f1fe"/><path d="m296.828125 410.289062h-22.5v25.757813h22.5c2.617187 0 4.738281-2.121094 4.738281-4.734375v-16.285156c0-2.617188-2.121094-4.738282-4.738281-4.738282zm0 0" fill="#f948b4"/><path d="m221.394531 339.828125h-47.765625c-4.144531 0-7.5-3.359375-7.5-7.5 0-4.144531 3.355469-7.5 7.5-7.5h47.765625c4.140625 0 7.5 3.355469 7.5 7.5 0 4.140625-3.359375 7.5-7.5 7.5zm0 0" fill="#8181fc"/><path d="m292.308594 393.925781h-118.679688c-4.140625 0-7.5-3.359375-7.5-7.5 0-4.144531 3.359375-7.5 7.5-7.5h118.679688c4.140625 0 7.5 3.355469 7.5 7.5 0 4.140625-3.359375 7.5-7.5 7.5zm0 0" fill="#aeaeff"/><path d="m292.308594 366.875h-118.679688c-4.140625 0-7.5-3.359375-7.5-7.5s3.359375-7.5 7.5-7.5h118.679688c4.140625 0 7.5 3.359375 7.5 7.5s-3.359375 7.5-7.5 7.5zm0 0" fill="#aeaeff"/><path d="m254.050781 386.425781c0-4.144531 3.359375-7.5 7.5-7.5h-87.921875c-4.140625 0-7.5 3.355469-7.5 7.5 0 4.140625 3.359375 7.5 7.5 7.5h87.921875c-4.140625 0-7.5-3.359375-7.5-7.5zm0 0" fill="#8181fc"/><path d="m254.050781 359.375c0-4.140625 3.359375-7.5 7.5-7.5h-87.921875c-4.140625 0-7.5 3.359375-7.5 7.5s3.359375 7.5 7.5 7.5h87.921875c-4.140625 0-7.5-3.359375-7.5-7.5zm0 0" fill="#8181fc"/></svg>